HIERARCHY
ROOT SpineBase
{
  OFFSET 0.000000 0.000000 0.000000
  CHANNELS 6 Xposition Yposition Zposition Zrotation Xrotation Yrotation
  JOINT SpineMid
  {
    OFFSET -0.000000 22.345363 0.000000
    CHANNELS 3 Zrotation Xrotation Yrotation
    JOINT SpineShoulder
    {
      OFFSET -0.044742 16.867983 -0.628297
      CHANNELS 3 Zrotation Xrotation Yrotation
      JOINT Neck
      {
        OFFSET -0.047312 5.669999 -0.476285
        CHANNELS 3 Zrotation Xrotation Yrotation
        JOINT Head
        {
          OFFSET -1.813655 13.398305 3.818701
          CHANNELS 3 Zrotation Xrotation Yrotation
          End Site
          {
            OFFSET 0 0 0
          }
        }
      }
      JOINT ShoulderLeft
      {
        OFFSET -12.047727 -5.290226 4.426503
        CHANNELS 3 Zrotation Xrotation Yrotation
        JOINT ElbowLeft
        {
          OFFSET -4.601643 -21.900790 -1.337859
          CHANNELS 3 Zrotation Xrotation Yrotation
          JOINT WristLeft
          {
            OFFSET -1.155455 -7.753987 -17.973108
            CHANNELS 3 Zrotation Xrotation Yrotation
            JOINT HandLeft
            {
              OFFSET 0.101787 -0.529794 -1.239086
              CHANNELS 3 Zrotation Xrotation Yrotation
              JOINT HandTipLeft
              {
                OFFSET 0.992192 -0.385407 -7.964566
                CHANNELS 3 Zrotation Xrotation Yrotation
                End Site
                {
                  OFFSET 0 0 0
                }
              }
              JOINT ThumbLeft
              {
                OFFSET 1.830916 -0.788703 -4.347776
                CHANNELS 3 Zrotation Xrotation Yrotation
                End Site
                {
                  OFFSET 0 0 0
                }
              }
            }
          }
        }
      }
      JOINT ShoulderRight
      {
        OFFSET 9.983345 -2.048123 -6.834282
        CHANNELS 3 Zrotation Xrotation Yrotation
        JOINT ElbowRight
        {
          OFFSET 3.935739 -22.039795 -5.846217
          CHANNELS 3 Zrotation Xrotation Yrotation
          JOINT WristRight
          {
            OFFSET -12.210961 -9.690228 -9.949412
            CHANNELS 3 Zrotation Xrotation Yrotation
            JOINT HandRight
            {
              OFFSET -2.571081 -2.751935 -5.123071
              CHANNELS 3 Zrotation Xrotation Yrotation
              JOINT HandTipRight
              {
                OFFSET -2.486235 -2.060674 -6.208157
                CHANNELS 3 Zrotation Xrotation Yrotation
                End Site
                {
                  OFFSET 0 0 0
                }
              }
              JOINT ThumbRight
              {
                OFFSET -3.160794 2.175049 -0.422523
                CHANNELS 3 Zrotation Xrotation Yrotation
                End Site
                {
                  OFFSET 0 0 0
                }
              }
            }
          }
        }
      }
    }
  }
  JOINT HipLeft
  {
    OFFSET -5.431339 1.034628 -1.106697
    CHANNELS 3 Zrotation Xrotation Yrotation
    JOINT KneeLeft
    {
      OFFSET -19.256208 -5.910578 -26.665667
      CHANNELS 3 Zrotation Xrotation Yrotation
      JOINT AnkleLeft
      {
        OFFSET 0.586771 -33.349342 3.656914
        CHANNELS 3 Zrotation Xrotation Yrotation
        JOINT FootLeft
        {
          OFFSET -4.468706 -3.633175 -6.026462
          CHANNELS 3 Zrotation Xrotation Yrotation
          End Site
          {
            OFFSET 0 0 0
          }
        }
      }
    }
  }
  JOINT HipRight
  {
    OFFSET 4.824207 1.526864 -4.511936
    CHANNELS 3 Zrotation Xrotation Yrotation
    JOINT KneeRight
    {
      OFFSET -13.364172 -4.440713 -30.697992
      CHANNELS 3 Zrotation Xrotation Yrotation
      JOINT AnkleRight
      {
        OFFSET 9.831846 -36.181593 2.560216
        CHANNELS 3 Zrotation Xrotation Yrotation
        JOINT FootRight
        {
          OFFSET -3.781905 -3.567980 -6.559192
          CHANNELS 3 Zrotation Xrotation Yrotation
          End Site
          {
            OFFSET 0 0 0
          }
        }
      }
    }
  }
}
MOTION
Frames: 9
Frame Time: 0.033333
40.662011 45.611041 373.413660 0.000000 0.000000 18.368167 -0.000000 0.000000 -18.368167 -0.000000 0.000000 0.000000 -0.000000 0.000000 0.000000 0.000000 0.000000 0.000000 -0.000000 0.000000 0.000000 -0.000000 0.000000 0.000000 -0.000000 0.000000 0.000000 -0.000000 0.000000 0.000000 0.000000 0.000000 0.000000 0.000000 0.000000 0.000000 -0.000000 0.000000 0.000000 -0.000000 0.000000 0.000000 -0.000000 0.000000 0.000000 -0.000000 0.000000 0.000000 0.000000 0.000000 0.000000 0.000000 0.000000 0.000000 -0.000000 0.000000 -18.368167 -0.000000 0.000000 0.000000 -0.000000 0.000000 0.000000 0.000000 0.000000 0.000000 -0.000000 0.000000 -18.368167 -0.000000 0.000000 0.000000 -0.000000 0.000000 0.000000 0.000000 0.000000 0.000000
40.675520 45.629890 373.396909 0.030455 0.054835 17.799731 -0.045760 -0.042901 -17.799763 -0.000000 0.000000 0.000000 -0.000000 0.000000 0.000000 0.000000 0.000000 0.000000 0.018284 -0.802225 0.167649 0.832379 -2.300303 -1.785358 0.789608 -1.395277 -3.451816 -2.053144 2.858399 5.095591 0.000000 0.000000 0.000000 0.000000 0.000000 0.000000 -0.000000 0.000000 0.000000 2.824064 -2.327648 0.095711 1.951908 -1.863788 -5.570954 -2.889104 0.981452 2.906688 0.000000 0.000000 0.000000 0.000000 0.000000 0.000000 -0.045760 -0.042901 -17.799763 -0.000000 0.000000 0.000000 -1.117085 5.952333 -4.929183 0.000000 0.000000 0.000000 -0.045760 -0.042901 -17.799763 -0.000000 0.000000 0.000000 0.001623 -0.694238 0.741152 0.000000 0.000000 0.000000
40.680126 45.644299 373.388481 0.042852 0.085721 17.397327 -0.066522 -0.068987 -17.397399 -0.000000 0.000000 0.000000 -0.000000 0.000000 0.000000 0.000000 0.000000 0.000000 -0.020939 -1.458710 0.307750 1.365940 -3.673543 -2.964234 0.631991 0.420390 -3.554856 -2.558740 1.826846 6.350298 0.000000 0.000000 0.000000 0.000000 0.000000 0.000000 -0.000000 0.000000 0.000000 4.628709 -3.703050 0.068312 2.986699 -3.484785 -8.827689 -4.756480 1.530878 5.051727 0.000000 0.000000 0.000000 0.000000 0.000000 0.000000 -0.066522 -0.068987 -17.397399 -0.000000 0.000000 0.000000 -1.641625 10.440598 -8.540731 0.000000 0.000000 0.000000 -0.066522 -0.068987 -17.397399 -0.000000 0.000000 0.000000 -0.011243 -1.049942 1.152749 0.000000 0.000000 0.000000
40.675827 45.654267 373.388376 0.037185 0.092641 17.158608 -0.062861 -0.077548 -17.158681 -0.000000 0.000000 0.000000 -0.000000 0.000000 0.000000 0.000000 0.000000 0.000000 -0.118010 -1.975461 0.420636 1.658307 -4.046827 -3.528825 0.344961 2.873797 -2.743216 -2.464743 -0.671564 6.198707 0.000000 0.000000 0.000000 0.000000 0.000000 0.000000 -0.000000 0.000000 0.000000 5.494840 -4.210262 -0.150958 3.505798 -4.676214 -10.064684 -5.592217 1.631714 6.256605 0.000000 0.000000 0.000000 0.000000 0.000000 0.000000 -0.062861 -0.077548 -17.158681 -0.000000 0.000000 0.000000 -1.871020 13.738985 -11.154568 0.000000 0.000000 0.000000 -0.062861 -0.077548 -17.158681 -1.058366 0.044307 -0.062602 1.012157 -1.055311 1.241459 0.000000 0.000000 0.000000
40.662625 45.659795 373.396593 0.013465 0.075604 17.081943 -0.035079 -0.068313 -17.081973 -0.000000 0.000000 0.000000 -0.000000 0.000000 0.000000 0.000000 0.000000 0.000000 -0.273714 -2.356854 0.506745 1.739623 -3.388011 -3.472397 0.105278 5.347385 -1.608956 -2.109859 -4.157109 5.297514 0.000000 0.000000 0.000000 0.000000 0.000000 0.000000 -0.000000 0.000000 0.000000 5.475445 -3.891352 -0.590723 3.693813 -5.405163 -9.436256 -5.420937 1.273409 6.480655 0.000000 0.000000 0.000000 0.000000 0.000000 0.000000 -0.035079 -0.068313 -17.081973 -0.000000 0.000000 0.000000 -1.971004 16.101717 -12.993724 0.000000 0.000000 0.000000 -0.035079 -0.068313 -17.081973 -1.223791 0.000154 -0.086807 1.118162 -0.553520 0.876596 0.000000 0.000000 0.000000
40.640518 45.660882 373.413133 -0.028275 0.034643 17.166456 0.016791 -0.041445 -17.166442 -0.000000 0.000000 0.000000 -0.000000 0.000000 0.000000 0.000000 0.000000 0.000000 -0.489302 -2.605649 0.566612 1.606146 -1.691610 -2.785013 -0.040338 7.703812 -0.301892 -1.672573 -8.582469 3.878958 0.000000 0.000000 0.000000 0.000000 0.000000 0.000000 -0.000000 0.000000 0.000000 4.593846 -2.740765 -1.248645 3.482909 -5.650688 -6.869696 -4.193122 0.342525 5.646376 0.000000 0.000000 0.000000 0.000000 0.000000 0.000000 0.016791 -0.041445 -17.166442 -0.000000 0.000000 0.000000 -2.031473 17.720391 -14.207141 0.000000 0.000000 0.000000 0.016791 -0.041445 -17.166442 -1.295526 -0.073185 -0.112731 1.295381 0.075715 0.111048 0.000000 0.000000 0.000000
40.587017 45.655729 373.462624 -0.108811 -0.058940 17.344923 0.121434 0.023821 -17.345004 -0.000000 0.000000 0.000000 -0.000000 0.000000 0.000000 0.000000 0.000000 0.000000 -0.443105 -2.592920 0.562256 0.980246 -0.587595 -1.434612 1.275191 9.465903 -2.290403 -2.144782 -14.198894 6.239533 0.000000 0.000000 0.000000 0.000000 0.000000 0.000000 -0.000000 0.000000 0.000000 4.152257 -1.822515 -2.027862 2.076673 -5.635441 -2.614690 -2.647637 -1.322800 6.103348 0.000000 0.000000 0.000000 0.000000 0.000000 0.000000 0.121434 0.023821 -17.345004 -0.000000 0.000000 0.000000 -2.130199 21.149537 -16.677239 0.000000 0.000000 0.000000 0.121434 0.023821 -17.345004 -1.349338 -0.176302 -0.145919 -1.279573 9.273307 -3.836927 0.000000 0.000000 0.000000
40.535524 45.628911 373.487826 -0.208989 -0.139391 17.729387 0.241511 0.069128 -17.729787 -0.000000 0.000000 0.000000 -0.000000 0.000000 0.000000 0.000000 0.000000 0.000000 -0.239813 -2.350000 0.503972 -0.248622 2.366890 0.683257 -0.007202 11.461399 2.083657 -1.299256 -19.435789 1.577947 0.000000 0.000000 0.000000 0.000000 0.000000 0.000000 -0.883856 -0.420926 0.156408 3.080528 1.773847 -4.217659 -2.214418 -5.808095 9.095569 2.407095 -4.521000 -0.930593 0.000000 0.000000 0.000000 0.000000 0.000000 0.000000 0.241511 0.069128 -17.729787 -0.000000 0.000000 0.000000 -2.253342 18.354749 -14.371648 0.000000 0.000000 0.000000 0.241511 0.069128 -17.729787 -1.216575 -0.329905 -0.179720 -1.321033 13.146836 -6.940028 0.000000 0.000000 0.000000
40.501889 45.635827 373.501007 -0.298975 -0.225401 18.769693 0.355602 0.117212 -18.770645 -0.000000 0.000000 0.000000 -0.000000 0.000000 0.000000 0.000000 0.000000 0.000000 -1.061546 -2.052845 0.476796 -0.785478 7.458821 2.879505 -2.640159 14.333886 8.794176 -1.972689 -30.141820 -1.553614 0.000000 0.000000 0.000000 0.000000 0.000000 0.000000 -0.000000 0.000000 0.000000 -1.260426 5.513589 -5.261343 -8.222651 -4.010111 19.031843 7.559687 -10.448650 -5.958686 0.000000 0.000000 0.000000 0.000000 0.000000 0.000000 0.355602 0.117212 -18.770645 -0.243674 0.797297 -0.011005 -2.098982 17.501484 -14.203507 0.000000 0.000000 0.000000 0.355602 0.117212 -18.770645 -0.884809 -0.527804 -0.210483 -1.503316 15.332331 -8.640334 0.000000 0.000000 0.000000
